<?xml version="1.0" encoding="UTF-8" standalone="no"?>
<!-- Created with Inkscape (http://www.inkscape.org/) -->

<svg
   width="210mm"
   height="297mm"
   viewBox="0 0 210 297"
   version="1.1"
   id="svg2179"
   xml:space="preserve"
   inkscape:version="1.2.1 (9c6d41e, 2022-07-14)"
   sodipodi:docname="drawing.svg"
   xmlns:inkscape="http://www.inkscape.org/namespaces/inkscape"
   xmlns:sodipodi="http://sodipodi.sourceforge.net/DTD/sodipodi-0.dtd"
   xmlns:xlink="http://www.w3.org/1999/xlink"
   xmlns="http://www.w3.org/2000/svg"
   xmlns:svg="http://www.w3.org/2000/svg"><sodipodi:namedview
     id="namedview2181"
     pagecolor="#ffffff"
     bordercolor="#111111"
     borderopacity="1"
     inkscape:showpageshadow="0"
     inkscape:pageopacity="0"
     inkscape:pagecheckerboard="1"
     inkscape:deskcolor="#d1d1d1"
     inkscape:document-units="mm"
     showgrid="false"
     inkscape:zoom="0.76708645"
     inkscape:cx="283.5404"
     inkscape:cy="570.9917"
     inkscape:window-width="1362"
     inkscape:window-height="890"
     inkscape:window-x="0"
     inkscape:window-y="38"
     inkscape:window-maximized="0"
     inkscape:current-layer="layer1" /><defs
     id="defs2176" /><g
     inkscape:label="Layer 1"
     inkscape:groupmode="layer"
     id="layer1"><g
       id="g2222"
       transform="matrix(1.3257308,0,0,1.1098502,-2.702108,-1.0299379)"><path
         style="fill:#000000;stroke-width:0.176389"
         d="m 101.6335,155.5065 c -11.707076,-0.63081 -21.557558,-2.93063 -28.736586,-6.70921 -2.881772,-1.51677 -4.937544,-3.02203 -7.169202,-5.24937 -6.146045,-6.13414 -9.24977,-12.28328 -9.24977,-18.32575 0,-2.21931 0.509974,-3.90807 1.75705,-5.8184 1.473562,-2.25727 3.173621,-3.58181 5.6016,-4.36428 1.666746,-0.53715 6.072742,-0.68374 8.11472,-0.26999 0.773834,0.1568 1.498667,0.28509 1.610741,0.28509 0.225723,0 0.18938,-1.04196 -0.255321,-7.32014 -0.643137,-9.079619 -1.621628,-15.782489 -3.991157,-27.340279 -1.183479,-5.77262 -1.265117,-6.31682 -1.256915,-8.37847 0.01198,-3.01274 0.323416,-3.82776 2.160347,-5.65367 1.466194,-1.45739 2.987169,-2.34683 5.661714,-3.310854 5.470417,-1.971793 13.633083,-2.891351 25.664579,-2.891221 0.29104,4e-6 2.07698,0.0846 3.96875,0.187985 14.94064,0.816527 25.01445,2.638575 30.87402,5.58417 2.43503,1.22409 3.67071,2.27685 4.34566,3.70234 0.63634,1.34398 0.50706,2.37944 -1.17826,9.43681 -1.76066,7.37289 -2.42478,11.67855 -2.89756,18.78541 -0.30122,4.528189 -0.60415,13.025339 -0.65084,18.256249 l -0.0307,3.43959 2.36365,-0.0617 c 4.48742,-0.11711 8.72315,0.59913 10.72125,1.81291 1.37539,0.83551 2.5747,2.15775 3.23289,3.56428 0.97406,2.0815 0.89001,5.13609 -0.24689,8.972 -1.55594,5.24979 -4.20151,8.48107 -9.86504,12.04912 -6.63824,4.18212 -17.35558,7.8003 -26.7022,9.01468 -4.09298,0.53179 -10.21614,0.79831 -13.84652,0.60269 z"
         id="path2353" /><path
         style="fill:#9a9996;stroke-width:0.176389"
         d="m 85.88053,104.19239 c 1.654484,-0.90087 1.472084,-0.45636 1.839824,-4.483649 0.51723,-5.66458 0.48207,-8.49291 -0.12115,-9.74549 -0.1752,-0.3638 -0.38322,-0.66146 -0.46226,-0.66146 -0.079,0 -0.14372,-0.1129 -0.14372,-0.2509 0,-0.39559 -1.095011,-0.65534 -2.376,-0.56362 -1.729971,0.12387 -2.125804,0.51519 -2.303161,2.27689 -0.06662,0.66172 -0.03721,1.68798 0.0657,2.29306 0.102456,0.6024 0.314024,2.20652 0.470151,3.56471 0.156127,1.3582 0.355658,2.86632 0.443404,3.35139 0.08775,0.485069 0.253388,1.858309 0.368094,3.051649 0.239042,2.48687 0.01365,2.3683 2.219117,1.16742 z"
         id="path2359" /><path
         style="fill:#9a9996;stroke-width:0.176389"
         d="m 133.30561,148.4746 c 0.97581,-0.31616 2.64269,-1.01619 3.70418,-1.55562 2.53628,-1.2889 2.4505,-1.22362 2.20655,-1.67946 -0.11045,-0.20636 -0.26724,-0.37521 -0.34845,-0.37521 -0.0812,0 -0.89202,0.44898 -1.80178,0.99773 -0.90978,0.54875 -2.76539,1.54277 -4.12359,2.20894 -2.59849,1.2745 -2.53672,1.34317 0.36309,0.40362 z"
         id="path2357" /><path
         style="fill:#9a9996;stroke-width:0.176389"
         d="m 105.34871,153.2293 c 6.12621,-0.58754 6.00912,-0.55373 2.01742,-0.58257 -13.582226,-0.0981 -24.722303,-2.41832 -34.395826,-7.16375 -2.292128,-1.12443 -5.606454,-3.116 -6.438195,-3.8687 -1.464954,-1.32575 -1.627013,-1.15751 -0.218463,0.22679 3.323971,3.26675 8.648596,6.28809 14.650922,8.31336 4.599356,1.55188 10.504666,2.69489 16.700186,3.23242 1.8481,0.16035 5.054896,0.0946 7.683956,-0.15755 z"
         id="path2355" /><path
         style="fill:#e01b24;stroke-width:0.176389"
         d="m 125.11222,174.47242 c -2.75582,-0.28807 -5.61336,-1.1693 -6.96359,-2.1475 -2.39919,-1.73813 -3.09084,-2.35636 -4.02942,-3.60167 -1.06607,-1.41447 -2.43155,-3.91302 -2.43155,-4.44925 0,-0.65464 0.72731,-0.99809 3.52778,-1.66586 2.14665,-0.51187 9.51559,-2.91161 10.53016,-3.4292 0.39791,-0.203 1.24479,-0.39965 2.00289,-0.46509 1.74078,-0.15026 2.54454,-0.45833 4.75306,-1.82176 1.01865,-0.62886 2.3561,-1.3701 2.9721,-1.64721 0.61602,-0.2771 1.34753,-0.66581 1.62557,-0.8638 0.27806,-0.19799 0.90426,-0.47838 1.39156,-0.62309 0.48731,-0.14472 1.93871,-0.80255 3.22533,-1.46185 2.80254,-1.43608 5.11949,-2.35606 5.74788,-2.28226 0.36346,0.0427 0.48821,0.18246 0.5991,0.67127 0.30695,1.35295 -0.69012,7.82434 -1.37636,8.93303 -0.12875,0.20799 -0.3511,0.88268 -0.49414,1.4993 -0.14305,0.61663 -0.4183,1.4902 -0.61169,1.94127 -0.4575,1.06709 -4.24539,6.13203 -5.19804,6.95052 -1.6264,1.39735 -5.99808,3.70375 -7.79311,4.11147 -2.25401,0.51197 -4.79903,0.63167 -7.47753,0.35168 z"
         id="path2351" /><path
         style="fill:#450ba5;stroke-width:0.176389"
         d="m 75.349968,174.54172 c -0.208984,-0.26678 -0.711748,-0.84225 -1.117256,-1.27881 -3.101428,-3.33895 -7.726917,-9.82041 -8.608653,-12.06288 -0.195001,-0.49594 -0.458525,-1.02077 -0.585606,-1.16629 -0.313147,-0.35858 -1.350308,-2.47011 -1.92087,-3.91064 -0.525563,-1.32692 -0.591384,-2.04955 -0.200353,-2.1996 0.404252,-0.15513 2.500435,0.45382 3.830963,1.11291 0.652421,0.32318 1.342268,0.58761 1.532992,0.58761 0.190724,0 0.389491,0.0691 0.441704,0.1536 0.05222,0.0845 0.335806,0.20178 0.630204,0.26066 0.294399,0.0589 1.218405,0.4286 2.053349,0.82161 0.834942,0.393 2.47406,0.99769 3.642483,1.34376 1.168423,0.34607 2.686849,0.85308 3.374281,1.12669 0.687432,0.27361 1.613775,0.55084 2.058541,0.61608 0.444765,0.0652 0.911598,0.18224 1.037403,0.25999 0.149173,0.0922 0.307383,0.97762 0.45483,2.54546 0.242351,2.57697 0.633673,4.14498 1.151368,4.61349 0.303427,0.27459 0.342817,0.25724 0.683163,-0.30102 0.3699,-0.60673 0.477523,-1.20977 0.215905,-1.20977 -0.08062,0 -0.252783,0.19844 -0.382584,0.44097 -0.129801,0.24254 -0.294199,0.44098 -0.365328,0.44098 -0.272002,0 -0.458632,-1.03814 -0.50108,-2.78729 -0.0348,-1.4341 0.01624,-1.90925 0.24217,-2.25406 0.337102,-0.51448 0.296319,-0.51672 5.29854,0.29059 1.74625,0.28183 4.41785,0.71036 5.93689,0.95229 1.51903,0.24193 3.19834,0.60318 3.7318,0.80277 1.77648,0.66467 2.845856,2.31274 2.505666,3.86162 -0.12902,0.58743 -0.33674,0.79736 -0.973656,0.98403 -0.24254,0.0711 -0.6791,0.35245 -0.97014,0.62527 -1.2159,1.13975 -5.82059,3.01643 -10.77471,4.39133 -3.455775,0.95906 -6.681231,1.42372 -9.882871,1.42372 -2.145759,0 -2.161539,-0.003 -2.539145,-0.48507 z"
         id="path2349" /><path
         style="fill:#e5a50a;stroke-width:0.176389"
         d="m 149.41566,179.657 c -2.57872,-2.6519 -5.09707,-5.63138 -5.09356,-6.02621 0.002,-0.15383 0.39953,-0.99407 0.8848,-1.86719 0.48526,-0.87313 2.03039,-3.90944 3.43362,-6.74736 2.95199,-5.9702 2.86015,-5.8627 5.01043,-5.86379 l 1.30567,-7e-4 -0.12099,2.41063 c -0.3571,7.1154 -1.84885,18.58251 -2.60632,20.03485 -0.0885,0.16978 -0.2658,0.30869 -0.39388,0.30869 -0.12809,0 -1.21699,-1.01204 -2.41977,-2.24896 z"
         id="path2347" /><path
         style="fill:#e5a50a;stroke-width:0.176389"
         d="m 66.547808,198.41724 c -0.191218,-0.23041 -1.427313,-5.81556 -3.029631,-13.68906 -0.856633,-4.20933 -2.806902,-14.2746 -2.806902,-14.48633 0,-0.0847 0.11084,-0.15394 0.246312,-0.15394 0.351052,0 1.152856,0.96507 2.607019,3.13787 3.220087,4.81144 8.342531,10.9363 10.151735,12.13833 1.070086,0.71096 1.610965,1.36721 2.239128,2.71674 0.627256,1.34759 0.599964,1.85688 -0.118846,2.21772 -0.315295,0.15828 -1.962326,1.70102 -3.660069,3.42832 -2.956425,3.00789 -5.025759,4.93602 -5.297513,4.93602 -0.07004,0 -0.219096,-0.11055 -0.331233,-0.24567 z"
         id="path2345" /><path
         style="fill:#e5a50a;stroke-width:0.176389"
         d="m 138.28549,210.08409 c -1.15286,-1.35949 -11.22374,-14.55039 -11.80979,-15.46856 -0.92304,-1.44613 -0.7743,-1.69888 2.52848,-4.29681 2.25309,-1.77225 6.01093,-5.27319 8.20965,-7.64842 2.43562,-2.63112 2.72839,-2.98307 3.80466,-4.57349 1.06874,-1.57931 1.4463,-1.79744 1.58916,-0.91808 0.18004,1.10822 -2.59156,32.56223 -2.96166,33.61091 -0.15254,0.43221 -0.58649,0.20715 -1.3605,-0.70555 z"
         id="path2343" /><path
         style="fill:#e5a50a;stroke-width:0.176389"
         d="m 83.5607,219.55469 c -0.250553,-0.59967 -0.840366,-3.1423 -2.022993,-8.72095 -3.317791,-15.65059 -4.112178,-19.30304 -4.336707,-19.93942 -0.325751,-0.92327 -0.330332,-1.30369 -0.01882,-1.56222 0.360141,-0.29889 0.931611,-0.0265 3.299272,1.57236 5.330915,3.60001 9.439762,5.4815 16.191112,7.41413 1.50534,0.43092 2.23056,1.00994 2.03663,1.62607 -0.0682,0.21667 -1.12902,1.783 -2.3574,3.48075 -1.22838,1.69774 -3.53513,4.95211 -5.12612,7.23194 -4.65345,6.66821 -6.827683,9.525 -7.249223,9.525 -0.08442,0 -0.271512,-0.28245 -0.415751,-0.62766 z"
         id="path2341" /><path
         style="fill:#e5a50a;stroke-width:0.176389"
         d="m 116.15035,228.84163 c -0.55055,-0.59095 -1.97685,-3.33341 -8.58695,-16.51079 -3.51464,-7.0065 -6.10629,-12.37534 -6.10629,-12.64969 0,-0.30213 0.13423,-0.5485 0.36659,-0.67286 0.21161,-0.11325 2.09444,-0.25989 4.45382,-0.34687 3.84159,-0.14163 4.23034,-0.18776 6.46848,-0.76763 2.98717,-0.77393 6.07589,-1.84039 8.35226,-2.88384 1.87416,-0.85909 3.00196,-1.0994 3.61635,-0.77059 0.55695,0.29807 0.49353,1.30249 -0.25236,3.9966 -0.34702,1.25347 -1.17217,4.54122 -1.83366,7.30611 -0.66149,2.7649 -1.64089,6.73365 -2.17646,8.81945 -0.53557,2.0858 -1.54128,6.14576 -2.23492,9.02213 -0.69364,2.87637 -1.36191,5.36757 -1.48505,5.53597 -0.20971,0.28679 -0.24656,0.28185 -0.58181,-0.078 z"
         id="path2339" /><path
         style="fill:#e5a50a;stroke-width:0.176389"
         d="m 103.66197,238.16481 c -2.45219,-0.37708 -7.210096,-2.06712 -9.929186,-3.52691 -1.73447,-0.9312 -5.43048,-3.49488 -7.26873,-5.04187 -3.879635,-3.26494 -8.676382,-8.74467 -11.177173,-12.76867 -0.59502,-0.95744 -1.517227,-2.36033 -2.04935,-3.11755 -1.056707,-1.50371 -3.112867,-5.23644 -4.790666,-8.6969 -1.454229,-2.99936 -1.780545,-3.86488 -1.651284,-4.3799 0.09005,-0.35879 5.349334,-5.75535 8.161765,-8.37481 1.297975,-1.20891 1.330037,-1.13345 3.133363,7.37484 0.637422,3.00744 1.279215,6.10306 1.426205,6.87917 0.594949,3.14135 3.258826,15.54921 3.417708,15.9191 0.26062,0.60672 0.793739,0.47858 1.467734,-0.35278 0.570558,-0.70377 3.346828,-4.62176 11.280178,-15.9191 3.49618,-4.97865 3.94076,-5.55625 4.2767,-5.55625 0.213626,0 1.501866,2.19397 3.573196,6.08542 1.28678,2.4175 8.8296,17.36358 11.26175,22.31515 0.78696,1.60214 1.55555,3.0165 1.70799,3.14302 0.60775,0.50437 1.00155,-0.71947 3.3674,-10.46511 0.9185,-3.78355 2.03824,-8.46667 2.48833,-10.40695 1.85926,-8.01515 3.46202,-14.09374 3.81225,-14.45818 0.2905,-0.3023 1.50355,1.12064 7.38974,8.66835 5.28404,6.7756 6.52621,8.23005 6.79734,7.95892 0.15024,-0.15025 0.32374,-2.10199 1.57259,-17.69131 1.17204,-14.63055 1.61412,-19.63004 1.79758,-20.32882 0.0573,-0.21828 0.18667,-0.39688 0.28748,-0.39688 0.10081,0 1.92348,1.72641 4.05038,3.83646 l 3.8671,3.83646 -0.11853,1.29249 c -0.4241,4.62407 -4.52292,17.56071 -7.88969,24.90126 -0.9003,1.96296 -3.48593,6.77303 -4.4735,8.32212 -0.47502,0.74512 -1.11465,1.77699 -1.42139,2.29305 -0.88821,1.4943 -4.34104,5.70624 -6.38528,7.78909 -1.83324,1.86789 -4.609,4.26743 -6.19797,5.35797 -2.00265,1.37442 -4.56571,2.94592 -5.42321,3.32516 -1.26701,0.56032 -4.41522,1.56621 -6.04207,1.93049 -1.54969,0.34701 -8.58637,0.51985 -10.31875,0.25347 z"
         id="path2337" /><path
         style="fill:#000000;stroke-width:0.176389"
         d="m 122.86185,265.02923 c -0.79782,-0.71357 -1.66813,-2.22293 -1.77804,-3.08365 -0.13509,-1.05784 -0.44938,-1.595 -1.37892,-2.3567 -0.98478,-0.80694 -1.23851,-1.27526 -1.58604,-2.92731 -0.32351,-1.53794 -0.59994,-2.00061 -1.39337,-2.33211 -0.32983,-0.13781 -0.69073,-0.42067 -0.802,-0.62856 -0.36987,-0.69113 -1.23912,-3.78224 -1.3519,-4.80748 -0.13426,-1.22049 0.0699,-1.54558 0.97414,-1.55106 0.73416,-0.004 1.63565,-0.38218 3.02111,-1.26591 0.53358,-0.34036 1.27335,-0.71781 1.64395,-0.8388 0.37059,-0.12098 0.71364,-0.32378 0.76232,-0.45065 0.10671,-0.27806 0.79513,-0.55341 1.69645,-0.67848 0.36472,-0.0506 0.89291,-0.25564 1.17375,-0.45563 0.28085,-0.19998 0.65936,-0.36359 0.84115,-0.36359 0.44753,0 2.73543,-1.11027 3.66801,-1.78 0.57776,-0.41492 1.00986,-0.56575 1.83504,-0.64057 l 1.07933,-0.0979 -0.001,0.50957 c -0.003,1.05422 -0.38886,2.86096 -0.97672,4.57039 -0.33435,0.97226 -0.6856,2.38051 -0.78056,3.12946 -0.11485,0.90585 -0.34887,1.7017 -0.69908,2.37737 -0.39008,0.75258 -0.57836,1.44974 -0.72689,2.69138 -0.12909,1.07925 -0.47662,2.48895 -0.97637,3.96053 -0.42677,1.25665 -0.85304,2.89971 -0.94727,3.65123 -0.20471,1.63257 -0.47748,2.33872 -1.23799,3.20488 -0.70045,0.79777 -1.2967,0.84515 -2.05877,0.16357 z"
         id="path2335" /><path
         style="fill:#9a9996;stroke-width:0.176389"
         d="m 90.717414,80.104151 c 0.66069,-0.14033 3.87848,-0.18991 10.563306,-0.16276 9.52699,0.0387 13.43039,-0.0902 18.52083,-0.61149 5.13543,-0.52593 8.46948,-1.13125 11.55347,-2.09763 0.98673,-0.3092 1.73324,-0.73745 0.97014,-0.55654 -1.29698,0.30747 -9.01726,0.98255 -15.25764,1.33416 -5.15293,0.29033 -14.65682,0.3817 -19.490966,0.18738 -5.86323,-0.23569 -8.65361,-0.47042 -11.994444,-1.00899 -1.503715,-0.24241 -3.686528,-0.50888 -4.850695,-0.59217 -2.64743,-0.1894 -6.718087,-1.2086 -9.941827,-2.4892 -0.716957,-0.28481 -1.340575,-0.48082 -1.385815,-0.43558 -0.168862,0.16886 1.513105,1.23159 3.390142,2.14201 1.067153,0.5176 2.883445,1.22604 4.036205,1.5743 1.235129,0.37315 2.30698,0.8108 2.609811,1.06562 0.764081,0.64293 3.717183,1.45154 6.318568,1.73013 1.413305,0.15135 4.073395,0.10885 4.958915,-0.0792 z"
         id="path2361" /><path
         style="fill:#000000;stroke-width:0.176389"
         d="m 98.475324,267.13693 c -0.453,-0.22609 -0.65276,-0.47882 -0.81315,-1.02877 -0.11694,-0.40097 -0.40948,-0.99628 -0.6501,-1.32292 -0.24061,-0.32661 -0.53807,-0.8492 -0.66103,-1.16127 -0.12295,-0.31208 -0.33988,-0.66396 -0.48205,-0.78195 -0.38698,-0.32117 -0.83231,-1.28288 -1.45795,-3.14856 -0.30907,-0.92163 -1.27251,-3.11914 -2.14099,-4.88334 -0.86847,-1.76421 -1.64801,-3.5768 -1.7323,-4.02797 -0.1037,-0.55509 -0.34218,-1.01524 -0.7376,-1.42321 -0.44371,-0.4578 -0.59325,-0.77611 -0.62134,-1.32254 -0.0247,-0.48117 -0.26077,-1.0801 -0.71227,-1.80734 -0.59902,-0.96486 -0.68197,-1.23707 -0.73461,-2.4106 -0.0751,-1.6746 0.13996,-2.02874 1.23144,-2.02784 0.78074,0 1.29818,0.2575 3.23332,1.60497 1.16061,0.80814 4.80379,2.579 6.30524,3.06479 0.74652,0.24153 1.37928,0.34343 1.697976,0.27344 0.63403,-0.13926 2.59628,0.49237 3.16085,1.01744 0.33664,0.31309 0.46112,0.34061 0.74346,0.16427 0.29333,-0.18318 0.42316,-0.12523 0.96152,0.42911 0.81229,0.83636 0.99216,1.52832 0.78418,3.01663 -0.21808,1.56057 -0.44541,2.25275 -1.0616,3.23235 -0.27994,0.44506 -0.50899,0.85651 -0.50899,0.91433 0,0.0578 -0.23174,0.48743 -0.51497,0.9547 -0.28324,0.46726 -0.64582,1.44459 -0.80575,2.17184 -0.15992,0.72726 -0.4093,1.45327 -0.55418,1.61334 -0.14487,0.1601 -0.33202,0.7765 -0.41588,1.36981 -0.12659,0.89557 -0.27275,1.21537 -0.86079,1.88344 -0.50359,0.5721 -0.85469,1.24381 -1.214746,2.32396 -0.27853,0.83561 -0.58084,1.54007 -0.67179,1.56545 -0.091,0.0254 -0.4356,-0.0887 -0.7659,-0.25356 z"
         id="path2331" /><text
         xml:space="preserve"
         style="font-weight:bold;font-size:14.1111px;font-family:sans-serif;-inkscape-font-specification:'sans-serif, Bold';fill:#e01b24;stroke:#010101;stroke-width:0.0649999"
         id="text2419"
         transform="matrix(-0.79476617,0.16056867,-0.47827137,-0.38305893,235.4741,110.92368)"><textPath
           xlink:href="#path2353"
           id="textPath2471"><tspan
             id="tspan2417"
             style="fill:#e01b24;stroke-width:0.065">BLKKAP</tspan></textPath></text></g></g></svg>
